<svg xmlns="http://www.w3.org/2000/svg" width="1080" height="720" viewBox="0 0 1080 720"><title>Fold &amp; Fetch pause overlay</title><rect id="Pause dim" x="0" y="0" width="1080" height="720" rx="0" fill="#17292F" opacity="0.52"/><g id="Pause panel" transform="translate(350 188)"><rect width="380" height="344" rx="28" fill="#F3E7CF"/><text id="Pause title" x="32" y="60" font-family="Nunito, ui-rounded, -apple-system, Arial, sans-serif" font-size="28" font-weight="700" fill="#243A40">Taking a breather</text><text id="Pause detail" x="32" y="99.0" font-family="Nunito, ui-rounded, -apple-system, Arial, sans-serif" font-size="14" font-weight="400" fill="#526368">Kaprao can wait.</text><g id="Resume action" transform="translate(32 120.5)"><rect width="316" height="52" rx="16" fill="#245E5A"/><g id="resume" transform="translate(117.03999999999999 15.0) scale(0.9166666666666666)"><path d="M8 5L19 12L8 19Z" fill="none" stroke="#F3E7CF" stroke-width="1.8" stroke-linecap="round" stroke-linejoin="round"/></g><text id="Label" x="149.04" y="32.0" font-family="Nunito, ui-rounded, -apple-system, Arial, sans-serif" font-size="16" font-weight="600" fill="#F3E7CF">Resume</text></g><g id="Replay rooftop action" transform="translate(32 190.5)"><rect width="316" height="52" rx="16" fill="#F3E7CF"/><g id="replay" transform="translate(83.75999999999999 15.0) scale(0.9166666666666666)"><path d="M5 8A8 8 0 1 1 4 15 M5 3V8H10" fill="none" stroke="#243A40" stroke-width="1.8" stroke-linecap="round" stroke-linejoin="round"/></g><text id="Label" x="115.75999999999999" y="32.0" font-family="Nunito, ui-rounded, -apple-system, Arial, sans-serif" font-size="16" font-weight="600" fill="#243A40">Replay rooftop</text></g><g id="Audio row" transform="translate(32 260.5)"><g id="audio-on" transform="translate(0 10.0) scale(1.0)"><path d="M4 9H8L13 5V19L8 15H4Z M17 8C20 10 20 14 17 16" fill="none" stroke="#243A40" stroke-width="1.8" stroke-linecap="round" stroke-linejoin="round"/></g><text id="Audio label" x="34" y="27.25" font-family="Nunito, ui-rounded, -apple-system, Arial, sans-serif" font-size="14" font-weight="600" fill="#243A40">Sound on</text></g></g></svg>